<?xml version="1.0" encoding="UTF-8"?>
<svg version="1.1" xmlns="http://www.w3.org/2000/svg" width="500" height="500">
<path d="M0 0 C165 0 330 0 500 0 C500 165 500 330 500 500 C335 500 170 500 0 500 C0 335 0 170 0 0 Z " fill="#E5E5DC" transform="translate(0,0)"/>
<path d="M0 0 C-0.66 6.27 -1.32 12.54 -2 19 C-0.35 19 1.3 19 3 19 C2.67 24.61 2.34 30.22 2 36 C-0.31 36 -2.62 36 -5 36 C-4.96724976 37.96187256 -4.96724976 37.96187256 -4.93383789 39.96337891 C-4.93615013 44.5848155 -5.39250658 49.01896074 -6.05859375 53.5859375 C-6.1672023 54.36836823 -6.27581085 55.15079895 -6.38771057 55.9569397 C-6.73188627 58.43047428 -7.08414999 60.90276084 -7.4375 63.375 C-7.89802562 66.63232941 -8.35485688 69.89015566 -8.80859375 73.1484375 C-8.97081924 74.31037628 -8.97081924 74.31037628 -9.13632202 75.49578857 C-9.93646561 81.31681952 -10.56944761 87.13893192 -11 93 C-9.35 93 -7.7 93 -6 93 C-6.33 97.95 -6.66 102.9 -7 108 C-12.72294945 110.28917978 -17.51327789 111.07680859 -23.625 111.3125 C-24.54539062 111.34988281 -25.46578125 111.38726562 -26.4140625 111.42578125 C-29.87968746 110.8551572 -30.85302426 109.75333271 -33 107 C-35.14248883 93.89724579 -31.77640856 79.25502502 -30.0625 66.25 C-29.78103858 64.04438072 -29.50043387 61.83865194 -29.22070312 59.6328125 C-28.95129341 57.53115082 -28.68113893 55.42958445 -28.41015625 53.328125 C-28.22103416 51.85946991 -28.22103416 51.85946991 -28.02809143 50.36114502 C-27.90804245 49.45209412 -27.78799347 48.54304321 -27.66430664 47.60644531 C-27.5599379 46.81087219 -27.45556915 46.01529907 -27.34803772 45.19561768 C-27.01386007 43.08743713 -26.5518665 41.06082565 -26 39 C-26.99 39 -27.98 39 -29 39 C-29 41.31 -29 43.62 -29 46 C-35.19439262 49.09719631 -44.20894463 48.11132878 -51 48 C-51.495 43.545 -51.495 43.545 -52 39 C-54.39719432 38.32041397 -54.39719432 38.32041397 -57 38 C-59.33204711 39.92642608 -59.33204711 39.92642608 -59.4375 43.3125 C-58.88110159 48.00214378 -57.46811708 48.89920756 -54 52 C-52.06482053 53.46852175 -50.10544176 54.90561475 -48.125 56.3125 C-41.59590777 61.14499314 -35.53030301 66.04255175 -33 74 C-31.89607551 85.76978318 -34.46129029 95.57016125 -41.25 105.1875 C-49.05438271 113.16925504 -58.71534027 115.97836021 -69.75 116.4375 C-75.85554575 116.21755959 -80.07417461 114.64751517 -84.6015625 110.55078125 C-89.86273528 104.01105531 -88.56377747 94.89288464 -88 87 C-87.69076824 85.6608717 -87.36351709 84.32542228 -87 83 C-84.64655194 82.66076424 -82.2924516 82.32849466 -79.9375 82 C-79.28072266 81.90460938 -78.62394531 81.80921875 -77.94726562 81.7109375 C-73.51719937 81.09989388 -69.53522068 81 -65 81 C-65 86.28 -65 91.56 -65 97 C-63.35 97 -61.7 97 -60 97 C-57.30794911 94.12229043 -56.73879617 91.38323876 -56.5 87.5625 C-56.67397688 83.79092968 -57.40771728 81.38830385 -60.1171875 78.5859375 C-63.61443399 75.64012407 -67.35126379 73.00730806 -71.04296875 70.3125 C-75.70375907 66.66760189 -80.09984948 62.70045155 -82 57 C-82.70940593 47.15017157 -82.23538889 38.79208807 -76.0625 30.8125 C-70.40741177 24.75780168 -61.53161692 20.3321604 -53.26953125 19.7265625 C-38.5592339 19.26067033 -38.5592339 19.26067033 -32 25 C-31.505 25.99 -31.505 25.99 -31 27 C-30.67 25.35 -30.34 23.7 -30 22 C-28.02 21.67 -26.04 21.34 -24 21 C-23.94465088 20.42967041 -23.88930176 19.85934082 -23.83227539 19.27172852 C-23.58026257 16.70151247 -23.32147272 14.13202369 -23.0625 11.5625 C-22.97548828 10.66466797 -22.88847656 9.76683594 -22.79882812 8.84179688 C-22.71181641 7.98779297 -22.62480469 7.13378906 -22.53515625 6.25390625 C-22.456604 5.46314697 -22.37805176 4.6723877 -22.29711914 3.85766602 C-22 2 -22 2 -21 1 C-18.98469244 0.76029381 -16.96172496 0.58391352 -14.9375 0.4375 C-13.83277344 0.35371094 -12.72804688 0.26992188 -11.58984375 0.18359375 C-7.73112088 -0.01375116 -3.86376594 0 0 0 Z " fill="#020202" transform="translate(323,280)"/>
<path d="M0 0 C0.93972656 0.00902344 1.87945312 0.01804687 2.84765625 0.02734375 C3.53730469 0.03894531 4.22695313 0.05054687 4.9375 0.0625 C5.08025827 16.90358359 4.87665384 33.72609139 4.5 50.5625 C4.4705278 51.93855408 4.4705278 51.93855408 4.44046021 53.34240723 C4.15981805 66.26320099 3.64695882 79.1581839 2.9375 92.0625 C1.05138776 92.30985898 -0.83472983 92.55717726 -2.72088623 92.80419922 C-4.16524426 92.99390541 -5.60931669 93.18578941 -7.05322266 93.37890625 C-11.08548871 93.89483976 -14.98714625 94.16534804 -19.0625 94.0625 C-20.48750407 89.18027092 -21.78059065 84.28056273 -22.97265625 79.3359375 C-23.14502304 78.62523102 -23.31738983 77.91452454 -23.49497986 77.18228149 C-23.85614821 75.6916749 -24.21661808 74.20089891 -24.57641602 72.70996094 C-25.12526629 70.4363969 -25.67672631 68.16347731 -26.22851562 65.890625 C-26.58088378 64.43493325 -26.93310248 62.97920532 -27.28515625 61.5234375 C-27.44871109 60.84936859 -27.61226593 60.17529968 -27.78077698 59.48080444 C-28.61449283 56.02019097 -29.39386154 52.55889574 -30.0625 49.0625 C-30.07280746 49.63657089 -30.08311493 50.21064178 -30.09373474 50.80210876 C-30.20157434 56.75515662 -30.31618977 62.70804615 -30.43481445 68.66088867 C-30.47823588 70.88513896 -30.51990545 73.10942415 -30.55981445 75.33374023 C-30.61734306 78.52338195 -30.68108684 81.7128468 -30.74609375 84.90234375 C-30.77116249 86.40389259 -30.77116249 86.40389259 -30.79673767 87.93577576 C-30.81668289 88.85665482 -30.83662811 89.77753387 -30.85717773 90.72631836 C-30.87272202 91.54128281 -30.8882663 92.35624725 -30.90428162 93.19590759 C-31.0625 95.0625 -31.0625 95.0625 -32.0625 96.0625 C-39.96534364 97.45711947 -48.07324171 97.1661071 -56.0625 97.0625 C-59.5401702 82.93562961 -62.80733752 68.78308097 -65.80224609 54.54589844 C-67.7157621 45.5141029 -69.81668825 36.53791553 -72.05859375 27.58203125 C-73.73830396 20.77966891 -74.97692873 13.98557714 -76.0625 7.0625 C-69.7925 6.7325 -63.5225 6.4025 -57.0625 6.0625 C-53.05061398 20.25840437 -50.10168337 34.62637899 -47.0625 49.0625 C-46.7325 34.2125 -46.4025 19.3625 -46.0625 4.0625 C-40.96163203 3.4248915 -36.59584966 2.94280284 -31.5625 3 C-30.5209375 3.00902344 -29.479375 3.01804688 -28.40625 3.02734375 C-27.24609375 3.04474609 -27.24609375 3.04474609 -26.0625 3.0625 C-22.72916667 18.0625 -19.39583333 33.0625 -16.0625 48.0625 C-15.7325 32.5525 -15.4025 17.0425 -15.0625 1.0625 C-4.9375 -0.0625 -4.9375 -0.0625 0 0 Z " fill="#030302" transform="translate(263.0625,125.9375)"/>
<path d="M0 0 C-0.54206859 9.48666678 -1.54506752 18.83592026 -2.86999512 28.24319458 C-3.43268307 32.24274635 -3.97847221 36.24462686 -4.52734375 40.24609375 C-4.64445709 41.09686996 -4.76157043 41.94764618 -4.88223267 42.82420349 C-6.24190395 52.71776191 -7.55266222 62.61769054 -8.85049438 72.51953125 C-9.11426629 74.52863857 -9.37919679 76.53759416 -9.64535522 78.54638672 C-11.66117616 93.73741311 -11.66117616 93.73741311 -13 109 C-18.0218344 110.97343652 -22.55584032 111.4086274 -27.875 111.625 C-28.65875 111.66367187 -29.4425 111.70234375 -30.25 111.7421875 C-32.16631367 111.83566622 -34.08312319 111.91888495 -36 112 C-35.40721753 103.14199629 -34.48520353 94.37817215 -33.29296875 85.58203125 C-33.04466812 83.71418724 -33.04466812 83.71418724 -32.79135132 81.80860901 C-32.44005567 79.1667798 -32.0876424 76.52513163 -31.73318481 73.88372803 C-30.81606974 67.04733252 -29.91083556 60.20936316 -29.0078125 53.37109375 C-28.9191221 52.70011406 -28.83043171 52.02913437 -28.73905373 51.33782196 C-27.06513657 38.65858162 -25.51602499 25.96807412 -24.10424805 13.25708008 C-23.96801025 12.04560303 -23.83177246 10.83412598 -23.69140625 9.5859375 C-23.57998291 8.5654834 -23.46855957 7.5450293 -23.35375977 6.49365234 C-23 4 -23 4 -22 1 C-14.64479068 0.36338219 -7.38395674 -0.12515181 0 0 Z " fill="#020202" transform="translate(220,290)"/>
<path d="M0 0 C-0.56997571 10.48446003 -1.63278324 20.83638449 -3.03125 31.2421875 C-3.22965124 32.74612681 -3.42759895 34.25012601 -3.62512207 35.75418091 C-4.14007697 39.66706203 -4.66053761 43.57918937 -5.18243408 47.4911499 C-5.81566418 52.24457448 -6.4429631 56.9987847 -7.07039642 61.75297737 C-7.55838545 65.45055894 -8.04743914 69.14798606 -8.54016113 72.84494019 C-9.27271441 78.35929043 -10.00299667 83.86791148 -10.56445312 89.40283203 C-11 93 -11 93 -12 94 C-18.95175009 95.15862501 -25.97621723 95.0975949 -33 95 C-32.20046461 84.96125192 -30.94382922 74.98111916 -29.71484375 64.98828125 C-29.49192271 63.16556067 -29.26915197 61.34282171 -29.04652405 59.52006531 C-28.46441611 54.75739456 -27.88028663 49.99497392 -27.29571533 45.23260498 C-26.69785978 40.35899736 -26.10194472 35.48515251 -25.50585938 30.61132812 C-24.33912337 21.07398746 -23.17024854 11.53691027 -22 2 C-19.08362234 1.66395648 -16.16694348 1.33106414 -13.25 1 C-12.425 0.90460938 -11.6 0.80921875 -10.75 0.7109375 C-9.95078125 0.62070312 -9.1515625 0.53046875 -8.328125 0.4375 C-7.22839355 0.31181641 -7.22839355 0.31181641 -6.10644531 0.18359375 C-4.07773478 0.00677521 -2.03640154 0 0 0 Z " fill="#020202" transform="translate(241,304)"/>
<path d="M0 0 C0.99 0 1.98 0 3 0 C3.06316406 0.845625 3.12632812 1.69125 3.19140625 2.5625 C4.08828706 10.87044851 5.5873926 15.59539444 12 21 C14.75197192 23.19316922 17.52946907 25.34916779 20.38012695 27.4128418 C28.34618391 33.23570402 28.34618391 33.23570402 29.53125 38.24609375 C29.45567829 43.54556022 28.8112049 46.98278403 25 51 C22.3125 51.4375 22.3125 51.4375 20 51 C19 50 19 50 18.8671875 47.671875 C18.86976563 46.70765625 18.87234375 45.7434375 18.875 44.75 C18.87242187 43.79609375 18.86984375 42.8421875 18.8671875 41.859375 C19 39 19 39 20 34 C12.74 34.66 5.48 35.32 -2 36 C-2.33 41.61 -2.66 47.22 -3 53 C-3.33 53 -3.66 53 -4 53 C-5.32374623 40.76251277 -4.40018725 29.62182815 -2.5625 17.5 C-2.31558332 15.79057684 -2.07013275 14.08094125 -1.82617188 12.37109375 C-1.23424861 8.24476181 -0.62281367 4.12177765 0 0 Z " fill="#DBDBD2" transform="translate(238,327)"/>
<path d="M0 0 C2.375 0.75 2.375 0.75 3.375 1.75 C3.375 4.72 3.375 7.69 3.375 10.75 C14.265 9.76 14.265 9.76 25.375 8.75 C25.375 6.44 25.375 4.13 25.375 1.75 C26.365 1.75 27.355 1.75 28.375 1.75 C27.28195088 15.58570075 25.72524461 29.30969366 23.78417969 43.05322266 C22.68517371 50.94213744 21.88753713 58.80110575 21.375 66.75 C21.045 66.75 20.715 66.75 20.375 66.75 C20.14713542 64.73177083 19.91927083 62.71354167 19.69140625 60.6953125 C19.46207039 58.67595684 19.46207039 58.67595684 18.375 56.75 C18.684375 55.63625 18.99375 54.5225 19.3125 53.375 C21.07563095 46.68726192 21.75029856 39.06202631 19 32.5625 C14.14500998 24.33456955 5.205796 18.70966903 -2.47265625 13.37890625 C-4.625 11.75 -4.625 11.75 -5.625 9.75 C-6.07853794 3.51385337 -6.07853794 3.51385337 -4.4375 0.75 C-2.625 -0.25 -2.625 -0.25 0 0 Z " fill="#DADAD2" transform="translate(268.625,317.25)"/>
<path d="M0 0 C0.95261487 4.76307437 1.08333357 9.1666528 1 14 C-9.39713366 16.03594062 -19.39888476 17.20300008 -30 17 C-30.93619813 13.84493858 -31.1057123 11.03413498 -31.0625 7.75 C-31.05347656 6.85796875 -31.04445313 5.9659375 -31.03515625 5.046875 C-31.02355469 4.37140625 -31.01195312 3.6959375 -31 3 C-26.77137996 2.49530384 -22.54202341 1.99706416 -18.3125 1.5 C-16.51522461 1.28537109 -16.51522461 1.28537109 -14.68164062 1.06640625 C-13.52470703 0.93105469 -12.36777344 0.79570312 -11.17578125 0.65625 C-10.11270752 0.53056641 -9.04963379 0.40488281 -7.9543457 0.27539062 C-5.27954584 0.02605799 -2.68391231 -0.05207267 0 0 Z " fill="#050505" transform="translate(304,168)"/>
<path d="M0 0 C-0.66 5.28 -1.32 10.56 -2 16 C-9.03905044 16.93854006 -15.90272572 17.10808032 -23 17 C-23.02715383 15.25008666 -23.04646551 13.50005055 -23.0625 11.75 C-23.07410156 10.77546875 -23.08570313 9.8009375 -23.09765625 8.796875 C-23.01195577 6.34241322 -22.70706066 4.33831086 -22 2 C-19.64655194 1.66076424 -17.2924516 1.32849466 -14.9375 1 C-14.28072266 0.90460938 -13.62394531 0.80921875 -12.94726562 0.7109375 C-8.51719937 0.09989388 -4.53522068 0 0 0 Z " fill="#060606" transform="translate(244,282)"/>
<path d="M0 0 C0.33 0 0.66 0 1 0 C1.34239935 9.3404414 0.27272506 18.41615476 -0.8984375 27.65625 C-1.09592292 29.25079333 -1.29290431 30.84539916 -1.4894104 32.44006348 C-1.90059412 35.7654225 -2.31620158 39.09018667 -2.73535156 42.41455078 C-3.26878963 46.64635722 -3.79359648 50.87917615 -4.31537437 55.11243439 C-4.72118546 58.40041092 -5.1303466 61.68796356 -5.54060745 64.97538757 C-5.7350625 66.53479557 -5.92880413 68.09429273 -6.12177658 69.65388489 C-7.17608523 78.15058809 -8.33192942 86.59696943 -10 95 C-8.68 95.33 -7.36 95.66 -6 96 C-7.98 96 -9.96 96 -12 96 C-10.05715021 76.13599199 -7.73437444 56.34772118 -5.14379883 36.55932617 C-4.77837577 33.75974077 -4.41713369 30.95962186 -4.0559063 28.15949249 C-3.61997543 24.78315421 -3.18105985 21.40720725 -2.7421875 18.03125 C-2.58176971 16.79185669 -2.42135193 15.55246338 -2.256073 14.2755127 C-2.10566559 13.12820679 -1.95525818 11.98090088 -1.80029297 10.79882812 C-1.66944305 9.79597778 -1.53859314 8.79312744 -1.40377808 7.7598877 C-1.02188686 5.14960017 -0.54333215 2.58102118 0 0 Z " fill="#A9A9A2" transform="translate(218,304)"/>
<path d="M0 0 C2.28476032 3.42714048 2.16747262 4.1681798 1.7578125 8.10546875 C1.66113281 9.08837891 1.56445312 10.07128906 1.46484375 11.08398438 C1.35269531 12.10814453 1.24054688 13.13230469 1.125 14.1875 C1.02058594 15.22326172 0.91617188 16.25902344 0.80859375 17.32617188 C0.54914022 19.88532717 0.27922837 22.44293928 0 25 C-2.49412016 21.25881975 -2.08341808 19.72484007 -1.6875 15.3125 C-1.57921875 14.06855469 -1.4709375 12.82460938 -1.359375 11.54296875 C-0.9678687 7.68322731 -0.53787539 3.8419671 0 0 Z " fill="#8E8E89" transform="translate(211,355)"/>
</svg>
